<?xml version="1.0" standalone="no"?><!DOCTYPE svg PUBLIC "-//W3C//DTD SVG 1.1//EN" "http://www.w3.org/Graphics/SVG/1.1/DTD/svg11.dtd"><svg t="1783645434042" class="icon" viewBox="0 0 1024 1024" version="1.1" xmlns="http://www.w3.org/2000/svg" p-id="12962" xmlns:xlink="http://www.w3.org/1999/xlink" width="200" height="200"><path d="M892.171636 4.177455a21.178182 21.178182 0 0 1 6.586182 25.832727l-2.176 3.688727-151.947636 207.965091a20.829091 20.829091 0 0 1-29.277091 4.398545 21.189818 21.189818 0 0 1-6.586182-25.69309l2.082909-3.700364L862.917818 8.622545A20.829091 20.829091 0 0 1 892.218182 4.189091h-0.046546zM538.914909 0.046545c9.937455 0 18.525091 7.063273 20.503273 16.884364l0.442182 4.212364V229.236364a21.026909 21.026909 0 0 1-20.805819 21.248 20.968727 20.968727 0 0 1-20.677818-17.035637l-0.395636-4.212363V21.108364C517.981091 9.495273 527.325091 0 538.88 0l0.034909 0.046545zM213.888 5.445818l2.885818 3.176727 152.378182 208.081455a21.213091 21.213091 0 0 1-4.677818 29.474909 20.805818 20.805818 0 0 1-26.112-1.256727l-2.885818-3.176727L183.098182 33.745455a21.213091 21.213091 0 0 1 4.456727-29.509819 20.805818 20.805818 0 0 1 26.298182 1.210182h0.034909zM809.611636 380.043636H219.112727a62.906182 62.906182 0 0 0-55.68 33.896728l-2.874182 6.4L98.408727 580.654545h253.044364l-0.081455 0.791273a20.910545 20.910545 0 0 1 25.856 14.545455c0.523636 1.861818 0.791273 3.816727 0.791273 5.76 0 75.799273 60.962909 137.250909 136.145455 137.250909 75.217455 0 136.168727-61.44 136.168727-137.250909a21.061818 21.061818 0 0 1 19.712-21.096728h261.189818l-63.232-160.628363a62.917818 62.917818 0 0 0-51.409454-39.586909l-6.981819-0.395637h0.034909-0.034909z m-472.32 242.816h-252.509091v295.586909c0 32.465455 24.32 59.694545 56.366546 63.034182l6.434909 0.314182h733.114182c32.209455 0 59.217455-24.552727 62.533818-56.832l0.267636-6.516364V622.859636H691.025455c-11.508364 98.443636-100.002909 168.843636-197.655273 157.242182-81.826909-9.716364-146.362182-74.752-155.997091-157.242182h-0.081455z m472.285091-285.021091c42.938182 0 81.489455 26.426182 97.373091 66.606546l78.452364 199.330909V918.458182c0 58.298182-46.871273 105.553455-104.704 105.553454H147.584c-57.832727 0-104.727273-47.255273-104.727273-105.541818V607.941818l78.696728-202.949818c15.697455-40.517818 54.434909-67.176727 97.582545-67.165091h590.429091z" fill="#F0F0F0" p-id="12963"></path></svg>