<?xml version="1.0" standalone="no"?><!DOCTYPE svg PUBLIC "-//W3C//DTD SVG 1.1//EN" "http://www.w3.org/Graphics/SVG/1.1/DTD/svg11.dtd"><svg t="1784284949982" class="icon" viewBox="0 0 1024 1024" version="1.1" xmlns="http://www.w3.org/2000/svg" p-id="5501" xmlns:xlink="http://www.w3.org/1999/xlink" width="200" height="200"><path d="M912.896 867.84a42.666667 42.666667 0 0 1 0 85.333333c-15.445333 0-29.269333 0-39.68 0.426667-11.861333 0.426667-17.493333 1.152-133.290667 5.973333-114.432 4.778667-329.002667 13.226667-449.024 17.322667-120.106667 4.138667-145.322667 3.882667-170.752 3.669333a42.666667 42.666667 0 0 1 0.768-85.290666c23.637333 0.213333 47.488 0.426667 167.082667-3.669334 119.722667-4.096 334.08-12.544 448.384-17.28 112.768-4.693333 122.794667-5.632 133.632-6.058666 12.373333-0.426667 28.032-0.426667 42.88-0.426667zM569.642667 45.653333a42.581333 42.581333 0 0 1 44.885333 4.053334c10.794667 2.389333 20.650667 8.96 26.965333 19.072 6.741333 10.837333 21.077333 28.970667 43.605334 53.973333 14.805333 16.384 43.52 44.117333 61.824 62.805333 7.936 8.106667 13.909333 14.250667 17.877333 18.858667 3.882667 4.565333 9.045333 11.306667 12.032 20.906667l1.109333 4.266666 0.938667 5.802667a64 64 0 0 1-4.864 30.805333 70.741333 70.741333 0 0 1-12.458667 19.370667c-4.693333 5.632-12.544 14.250667-25.6 28.416-26.581333 28.8-77.610667 83.370667-110.165333 117.333333-33.834667 35.242667-44.117333 44.629333-74.922667 77.525334-30.336 32.426667-78.762667 85.845333-105.813333 116.266666-15.786667 17.664-26.410667 30.08-34.602667 39.765334-8.021333 9.386667-14.506667 17.194667-21.034666 24.490666-6.4 7.082667-16.426667 18.773333-33.066667 32.725334-9.258667 7.808-19.626667 11.946667-27.776 14.336-8.405333 2.56-17.493333 4.181333-26.24 5.376-17.066667 2.389333-39.850667 4.096-64.64 6.4-32.213333 2.986667-74.794667 3.541333-94.250667 4.309333-11.306667 0.469333-18.176 1.024-24.106666 1.365333-5.290667 0.341333-12.8 0.853333-21.077334-0.341333-24.32-3.541333-33.28-23.466667-35.114666-27.989333a60.032 60.032 0 0 1-3.84-15.786667 173.994667 173.994667 0 0 1-0.597334-21.973333c0.128-7.381333 0.469333-16.042667 0.853334-24.789334 0.298667-9.002667 0.682667-18.602667 0.853333-28.586666 0.298667-17.621333-0.725333-60.16 0.597333-104.021334 0.469333-15.061333 2.56-28.586667 7.338667-40.917333 4.992-12.842667 11.776-21.76 17.322667-28.16 3.157333-3.669333 6.997333-8.405333 25.301333-26.965333 18.005333-18.218667 50.304-50.133333 99.754667-97.408 49.365333-47.146667 115.712-109.397333 168.832-155.136a1414.784 1414.784 0 0 1 112.981333-88.490667l0.512-0.384 0.554667-0.341333c18.346667-12.117333 33.152-21.717333 44.032-28.586667 9.557333-6.058667 18.56-11.605333 23.893333-14.165333v-0.042667l8.106667-4.096z m13.653333 90.410667c-10.154667 6.442667-24.277333 15.573333-42.154667 27.392-19.925333 14.08-55.466667 39.594667-105.898666 83.029333-51.328 44.202667-116.309333 105.130667-165.546667 152.149334a4930.176 4930.176 0 0 0-98.005333 95.658666c-16.896 17.152-19.456 20.48-21.418667 22.741334-2.218667 2.56-2.261333 2.986667-2.261333 3.114666a42.069333 42.069333 0 0 0-1.706667 12.885334c-1.408 47.104-0.128 75.648-0.597333 102.826666-0.213333 10.965333-0.554667 21.290667-0.938667 30.378667v0.853333c23.68-0.853333 57.6-1.322667 85.12-3.84 27.434667-2.56 46.250667-3.968 60.672-5.973333 6.613333-0.938667 10.709333-1.792 13.141333-2.517333 10.026667-8.661333 16.085333-15.530667 22.144-22.314667 5.546667-6.229333 10.837333-12.586667 19.584-22.826667 8.533333-10.069333 19.626667-22.997333 35.84-41.258666 27.392-30.72 76.330667-84.736 107.306667-117.845334 30.506667-32.554667 44.757333-46.122667 75.562667-78.293333 32.085333-33.450667 82.773333-87.552 109.098666-116.096 4.48-4.864 8.106667-9.045333 11.178667-12.373333-15.701333-15.957333-46.933333-46.506667-62.634667-63.872-14.506667-16.085333-27.221333-31.146667-37.461333-44.501334l-0.981333 0.682667z" fill="#000000" p-id="5502"></path></svg>